<svg width="25" height="24" viewBox="0 0 25 24" fill="none" xmlns="http://www.w3.org/2000/svg">
	<path d="M8.29268 14C8.73672 15.7252 10.3028 17 12.1667 17C14.0305 17 15.5966 15.7252 16.0406 14M11.1844 2.764L4.40205 8.03912C3.94869 8.39175 3.722 8.56806 3.55869 8.78886C3.41403 8.98444 3.30627 9.20478 3.24069 9.43905C3.16666 9.70352 3.16666 9.9907 3.16666 10.5651V17.8C3.16666 18.9201 3.16666 19.4801 3.38465 19.908C3.5764 20.2843 3.88236 20.5903 4.25868 20.782C4.68651 21 5.24656 21 6.36666 21H17.9667C19.0868 21 19.6468 21 20.0746 20.782C20.451 20.5903 20.7569 20.2843 20.9487 19.908C21.1667 19.4801 21.1667 18.9201 21.1667 17.8V10.5651C21.1667 9.9907 21.1667 9.70352 21.0926 9.43905C21.0271 9.20478 20.9193 8.98444 20.7746 8.78886C20.6113 8.56806 20.3846 8.39175 19.9313 8.03913L13.149 2.764C12.7976 2.49075 12.622 2.35412 12.428 2.3016C12.2569 2.25526 12.0765 2.25526 11.9053 2.3016C11.7113 2.35412 11.5357 2.49075 11.1844 2.764Z" stroke="#B0F5EB" stroke-width="2" stroke-linecap="round" stroke-linejoin="round"/>
</svg>
