<svg width="25" height="24" viewBox="0 0 25 24" fill="none" xmlns="http://www.w3.org/2000/svg">
	<path d="M18.8333 16C20.7663 16 22.3333 13.0899 22.3333 9.5C22.3333 5.91015 20.7663 3 18.8333 3M18.8333 16C16.9003 16 15.3333 13.0899 15.3333 9.5C15.3333 5.91015 16.9003 3 18.8333 3M18.8333 16L5.77687 13.6261C4.84938 13.4575 4.38563 13.3731 4.01065 13.189C3.2478 12.8142 2.67969 12.1335 2.44747 11.3159C2.33333 10.914 2.33333 10.4427 2.33333 9.5C2.33333 8.5573 2.33333 8.08595 2.44747 7.68407C2.67969 6.86649 3.2478 6.18577 4.01065 5.81105C4.38563 5.62685 4.84938 5.54254 5.77687 5.3739L18.8333 3M5.33333 14L5.72719 19.514C5.76459 20.0376 5.78329 20.2995 5.8972 20.4979C5.9975 20.6726 6.14822 20.8129 6.32962 20.9005C6.53565 21 6.79814 21 7.32312 21H9.10552C9.70567 21 10.0057 21 10.2278 20.8803C10.423 20.7751 10.5777 20.6081 10.6676 20.4055C10.7699 20.1749 10.7468 19.8757 10.7008 19.2773L10.3333 14.5" stroke="#B0F5EB" stroke-width="2" stroke-linecap="round" stroke-linejoin="round"/>
</svg>
